<svg width="95" height="95" viewBox="0 0 95 95" fill="none" xmlns="http://www.w3.org/2000/svg"><path d="M14.891 32.727C19.323 29.284 23 31.66 27.906 37.34c.551.641 1.292-.11 1.715-.475.418-.37 6.892-6.199 7.21-6.465.314-.28.694-.803.195-1.387a172.37 172.37 0 01-3.529-4.517C24.909 13.262 56.99 5.643 52.065 5.524c-2.508-.066-12.569-.185-14.075-.019-6.094.641-13.746 6.337-17.598 8.992-5.04 3.448-6.921 5.472-7.23 5.752-1.425 1.245-.228 4.119-2.812 6.384-2.731 2.39-4.436.58-6.018 1.967-.784.693-2.978 2.337-3.605 2.883-.632.556-.746 1.491-.1 2.237 0 0 6.004 6.631 6.508 7.22.498.58 1.857 1.083 2.693.338.84-.742 3.002-2.627 3.363-2.96.37-.313-.238-4.09 1.7-5.59zm27.113 2.456c-.57-.66-1.277-.679-1.886-.138l-6.811 5.947a1.373 1.373 0 00-.128 1.9l39.396 44.836a2.524 2.524 0 003.567.252l4.608-3.862a2.565 2.565 0 00.247-3.6L42.004 35.182zm52.53-19.08c-.351-2.347-1.567-1.858-2.199-.865-.631 1.002-3.424 5.235-4.574 7.154-1.14 1.9-3.952 5.657-9.186 1.947-5.454-3.852-3.558-6.54-2.608-8.35.954-1.82 3.885-6.921 4.308-7.553.423-.641-.071-2.503-1.762-1.724-1.696.779-11.985 4.869-13.41 10.735-1.458 5.966 1.221 11.3-4.037 16.596l-6.38 6.65 6.408 7.439 7.857-7.458c1.872-1.88 5.871-3.71 9.49-2.883 7.757 1.753 11.99-1.159 14.54-5.975 2.29-4.304 1.91-13.367 1.553-15.713zM13.01 81.001a2.555 2.555 0 000 3.6l4.518 4.418c.988.993 2.555.575 3.543-.418l23.308-22.914-7.139-8.142-24.23 23.456z" fill="#000"/></svg>